<svg class="rich-terminal" viewBox="0 0 1482 782.0" xmlns="http://www.w3.org/2000/svg">
    <!-- Generated with Rich https://www.textualize.io -->
    <style>

    @font-face {
        font-family: "Fira Code";
        src: local("FiraCode-Regular"),
                url("https://cdnjs.cloudflare.com/ajax/libs/firacode/6.2.0/woff2/FiraCode-Regular.woff2") format("woff2"),
                url("https://cdnjs.cloudflare.com/ajax/libs/firacode/6.2.0/woff/FiraCode-Regular.woff") format("woff");
        font-style: normal;
        font-weight: 400;
    }
    @font-face {
        font-family: "Fira Code";
        src: local("FiraCode-Bold"),
                url("https://cdnjs.cloudflare.com/ajax/libs/firacode/6.2.0/woff2/FiraCode-Bold.woff2") format("woff2"),
                url("https://cdnjs.cloudflare.com/ajax/libs/firacode/6.2.0/woff/FiraCode-Bold.woff") format("woff");
        font-style: bold;
        font-weight: 700;
    }

    .terminal-1257802006-matrix {
        font-family: Fira Code, monospace;
        font-size: 20px;
        line-height: 24.4px;
        font-variant-east-asian: full-width;
    }

    .terminal-1257802006-title {
        font-size: 18px;
        font-weight: bold;
        font-family: arial;
    }

    .terminal-1257802006-r1 { fill: #c5c8c6 }
.terminal-1257802006-r2 { fill: #f5c2e7 }
.terminal-1257802006-r3 { fill: #cdd6f4 }
.terminal-1257802006-r4 { fill: #1f191e }
.terminal-1257802006-r5 { fill: #fab387;font-weight: bold }
    </style>

    <defs>
    <clipPath id="terminal-1257802006-clip-terminal">
      <rect x="0" y="0" width="1463.0" height="731.0" />
    </clipPath>
    <clipPath id="terminal-1257802006-line-0">
    <rect x="0" y="1.5" width="1464" height="24.65"/>
            </clipPath>
<clipPath id="terminal-1257802006-line-1">
    <rect x="0" y="25.9" width="1464" height="24.65"/>
            </clipPath>
<clipPath id="terminal-1257802006-line-2">
    <rect x="0" y="50.3" width="1464" height="24.65"/>
            </clipPath>
<clipPath id="terminal-1257802006-line-3">
    <rect x="0" y="74.7" width="1464" height="24.65"/>
            </clipPath>
<clipPath id="terminal-1257802006-line-4">
    <rect x="0" y="99.1" width="1464" height="24.65"/>
            </clipPath>
<clipPath id="terminal-1257802006-line-5">
    <rect x="0" y="123.5" width="1464" height="24.65"/>
            </clipPath>
<clipPath id="terminal-1257802006-line-6">
    <rect x="0" y="147.9" width="1464" height="24.65"/>
            </clipPath>
<clipPath id="terminal-1257802006-line-7">
    <rect x="0" y="172.3" width="1464" height="24.65"/>
            </clipPath>
<clipPath id="terminal-1257802006-line-8">
    <rect x="0" y="196.7" width="1464" height="24.65"/>
            </clipPath>
<clipPath id="terminal-1257802006-line-9">
    <rect x="0" y="221.1" width="1464" height="24.65"/>
            </clipPath>
<clipPath id="terminal-1257802006-line-10">
    <rect x="0" y="245.5" width="1464" height="24.65"/>
            </clipPath>
<clipPath id="terminal-1257802006-line-11">
    <rect x="0" y="269.9" width="1464" height="24.65"/>
            </clipPath>
<clipPath id="terminal-1257802006-line-12">
    <rect x="0" y="294.3" width="1464" height="24.65"/>
            </clipPath>
<clipPath id="terminal-1257802006-line-13">
    <rect x="0" y="318.7" width="1464" height="24.65"/>
            </clipPath>
<clipPath id="terminal-1257802006-line-14">
    <rect x="0" y="343.1" width="1464" height="24.65"/>
            </clipPath>
<clipPath id="terminal-1257802006-line-15">
    <rect x="0" y="367.5" width="1464" height="24.65"/>
            </clipPath>
<clipPath id="terminal-1257802006-line-16">
    <rect x="0" y="391.9" width="1464" height="24.65"/>
            </clipPath>
<clipPath id="terminal-1257802006-line-17">
    <rect x="0" y="416.3" width="1464" height="24.65"/>
            </clipPath>
<clipPath id="terminal-1257802006-line-18">
    <rect x="0" y="440.7" width="1464" height="24.65"/>
            </clipPath>
<clipPath id="terminal-1257802006-line-19">
    <rect x="0" y="465.1" width="1464" height="24.65"/>
            </clipPath>
<clipPath id="terminal-1257802006-line-20">
    <rect x="0" y="489.5" width="1464" height="24.65"/>
            </clipPath>
<clipPath id="terminal-1257802006-line-21">
    <rect x="0" y="513.9" width="1464" height="24.65"/>
            </clipPath>
<clipPath id="terminal-1257802006-line-22">
    <rect x="0" y="538.3" width="1464" height="24.65"/>
            </clipPath>
<clipPath id="terminal-1257802006-line-23">
    <rect x="0" y="562.7" width="1464" height="24.65"/>
            </clipPath>
<clipPath id="terminal-1257802006-line-24">
    <rect x="0" y="587.1" width="1464" height="24.65"/>
            </clipPath>
<clipPath id="terminal-1257802006-line-25">
    <rect x="0" y="611.5" width="1464" height="24.65"/>
            </clipPath>
<clipPath id="terminal-1257802006-line-26">
    <rect x="0" y="635.9" width="1464" height="24.65"/>
            </clipPath>
<clipPath id="terminal-1257802006-line-27">
    <rect x="0" y="660.3" width="1464" height="24.65"/>
            </clipPath>
<clipPath id="terminal-1257802006-line-28">
    <rect x="0" y="684.7" width="1464" height="24.65"/>
            </clipPath>
    </defs>

    <rect fill="#292929" stroke="rgba(255,255,255,0.35)" stroke-width="1" x="1" y="1" width="1480" height="780" rx="8"/><text class="terminal-1257802006-title" fill="#c5c8c6" text-anchor="middle" x="740" y="27">Dionysus</text>
            <g transform="translate(26,22)">
            <circle cx="0" cy="0" r="7" fill="#ff5f57"/>
            <circle cx="22" cy="0" r="7" fill="#febc2e"/>
            <circle cx="44" cy="0" r="7" fill="#28c840"/>
            </g>
        
    <g transform="translate(9, 41)" clip-path="url(#terminal-1257802006-clip-terminal)">
    <rect fill="#45475a" x="0" y="1.5" width="12.2" height="24.65" shape-rendering="crispEdges"/><rect fill="#45475a" x="12.2" y="1.5" width="12.2" height="24.65" shape-rendering="crispEdges"/><rect fill="#45475a" x="24.4" y="1.5" width="61" height="24.65" shape-rendering="crispEdges"/><rect fill="#45475a" x="85.4" y="1.5" width="12.2" height="24.65" shape-rendering="crispEdges"/><rect fill="#45475a" x="97.6" y="1.5" width="524.6" height="24.65" shape-rendering="crispEdges"/><rect fill="#45475a" x="622.2" y="1.5" width="183" height="24.65" shape-rendering="crispEdges"/><rect fill="#45475a" x="805.2" y="1.5" width="536.8" height="24.65" shape-rendering="crispEdges"/><rect fill="#45475a" x="1342" y="1.5" width="12.2" height="24.65" shape-rendering="crispEdges"/><rect fill="#45475a" x="1354.2" y="1.5" width="0" height="24.65" shape-rendering="crispEdges"/><rect fill="#45475a" x="1354.2" y="1.5" width="97.6" height="24.65" shape-rendering="crispEdges"/><rect fill="#45475a" x="1451.8" y="1.5" width="12.2" height="24.65" shape-rendering="crispEdges"/><rect fill="#181825" x="0" y="25.9" width="1464" height="24.65" shape-rendering="crispEdges"/><rect fill="#181825" x="0" y="50.3" width="1464" height="24.65" shape-rendering="crispEdges"/><rect fill="#181825" x="0" y="74.7" width="24.4" height="24.65" shape-rendering="crispEdges"/><rect fill="#f5c2e7" x="24.4" y="74.7" width="305" height="24.65" shape-rendering="crispEdges"/><rect fill="#181825" x="329.4" y="74.7" width="1110.2" height="24.65" shape-rendering="crispEdges"/><rect fill="#181825" x="1439.6" y="74.7" width="24.4" height="24.65" shape-rendering="crispEdges"/><rect fill="#181825" x="0" y="99.1" width="24.4" height="24.65" shape-rendering="crispEdges"/><rect fill="#181825" x="24.4" y="99.1" width="12.2" height="24.65" shape-rendering="crispEdges"/><rect fill="#181825" x="36.6" y="99.1" width="561.2" height="24.65" shape-rendering="crispEdges"/><rect fill="#181825" x="597.8" y="99.1" width="841.8" height="24.65" shape-rendering="crispEdges"/><rect fill="#181825" x="1439.6" y="99.1" width="24.4" height="24.65" shape-rendering="crispEdges"/><rect fill="#181825" x="0" y="123.5" width="24.4" height="24.65" shape-rendering="crispEdges"/><rect fill="#181825" x="24.4" y="123.5" width="12.2" height="24.65" shape-rendering="crispEdges"/><rect fill="#181825" x="36.6" y="123.5" width="683.2" height="24.65" shape-rendering="crispEdges"/><rect fill="#181825" x="719.8" y="123.5" width="719.8" height="24.65" shape-rendering="crispEdges"/><rect fill="#181825" x="1439.6" y="123.5" width="24.4" height="24.65" shape-rendering="crispEdges"/><rect fill="#181825" x="0" y="147.9" width="24.4" height="24.65" shape-rendering="crispEdges"/><rect fill="#181825" x="24.4" y="147.9" width="1415.2" height="24.65" shape-rendering="crispEdges"/><rect fill="#181825" x="1439.6" y="147.9" width="24.4" height="24.65" shape-rendering="crispEdges"/><rect fill="#181825" x="0" y="172.3" width="24.4" height="24.65" shape-rendering="crispEdges"/><rect fill="#f5c2e7" x="24.4" y="172.3" width="317.2" height="24.65" shape-rendering="crispEdges"/><rect fill="#181825" x="341.6" y="172.3" width="1098" height="24.65" shape-rendering="crispEdges"/><rect fill="#181825" x="1439.6" y="172.3" width="24.4" height="24.65" shape-rendering="crispEdges"/><rect fill="#181825" x="0" y="196.7" width="24.4" height="24.65" shape-rendering="crispEdges"/><rect fill="#181825" x="24.4" y="196.7" width="12.2" height="24.65" shape-rendering="crispEdges"/><rect fill="#181825" x="36.6" y="196.7" width="451.4" height="24.65" shape-rendering="crispEdges"/><rect fill="#181825" x="488" y="196.7" width="951.6" height="24.65" shape-rendering="crispEdges"/><rect fill="#181825" x="1439.6" y="196.7" width="24.4" height="24.65" shape-rendering="crispEdges"/><rect fill="#181825" x="0" y="221.1" width="24.4" height="24.65" shape-rendering="crispEdges"/><rect fill="#181825" x="24.4" y="221.1" width="12.2" height="24.65" shape-rendering="crispEdges"/><rect fill="#181825" x="36.6" y="221.1" width="817.4" height="24.65" shape-rendering="crispEdges"/><rect fill="#181825" x="854" y="221.1" width="585.6" height="24.65" shape-rendering="crispEdges"/><rect fill="#181825" x="1439.6" y="221.1" width="24.4" height="24.65" shape-rendering="crispEdges"/><rect fill="#181825" x="0" y="245.5" width="24.4" height="24.65" shape-rendering="crispEdges"/><rect fill="#181825" x="24.4" y="245.5" width="12.2" height="24.65" shape-rendering="crispEdges"/><rect fill="#181825" x="36.6" y="245.5" width="366" height="24.65" shape-rendering="crispEdges"/><rect fill="#181825" x="402.6" y="245.5" width="1037" height="24.65" shape-rendering="crispEdges"/><rect fill="#181825" x="1439.6" y="245.5" width="24.4" height="24.65" shape-rendering="crispEdges"/><rect fill="#181825" x="0" y="269.9" width="24.4" height="24.65" shape-rendering="crispEdges"/><rect fill="#181825" x="24.4" y="269.9" width="1415.2" height="24.65" shape-rendering="crispEdges"/><rect fill="#181825" x="1439.6" y="269.9" width="24.4" height="24.65" shape-rendering="crispEdges"/><rect fill="#181825" x="0" y="294.3" width="24.4" height="24.65" shape-rendering="crispEdges"/><rect fill="#f5c2e7" x="24.4" y="294.3" width="317.2" height="24.65" shape-rendering="crispEdges"/><rect fill="#181825" x="341.6" y="294.3" width="1098" height="24.65" shape-rendering="crispEdges"/><rect fill="#181825" x="1439.6" y="294.3" width="24.4" height="24.65" shape-rendering="crispEdges"/><rect fill="#181825" x="0" y="318.7" width="24.4" height="24.65" shape-rendering="crispEdges"/><rect fill="#181825" x="24.4" y="318.7" width="12.2" height="24.65" shape-rendering="crispEdges"/><rect fill="#181825" x="36.6" y="318.7" width="451.4" height="24.65" shape-rendering="crispEdges"/><rect fill="#181825" x="488" y="318.7" width="951.6" height="24.65" shape-rendering="crispEdges"/><rect fill="#181825" x="1439.6" y="318.7" width="24.4" height="24.65" shape-rendering="crispEdges"/><rect fill="#181825" x="0" y="343.1" width="24.4" height="24.65" shape-rendering="crispEdges"/><rect fill="#181825" x="24.4" y="343.1" width="12.2" height="24.65" shape-rendering="crispEdges"/><rect fill="#181825" x="36.6" y="343.1" width="817.4" height="24.65" shape-rendering="crispEdges"/><rect fill="#181825" x="854" y="343.1" width="585.6" height="24.65" shape-rendering="crispEdges"/><rect fill="#181825" x="1439.6" y="343.1" width="24.4" height="24.65" shape-rendering="crispEdges"/><rect fill="#181825" x="0" y="367.5" width="24.4" height="24.65" shape-rendering="crispEdges"/><rect fill="#181825" x="24.4" y="367.5" width="12.2" height="24.65" shape-rendering="crispEdges"/><rect fill="#181825" x="36.6" y="367.5" width="475.8" height="24.65" shape-rendering="crispEdges"/><rect fill="#181825" x="512.4" y="367.5" width="927.2" height="24.65" shape-rendering="crispEdges"/><rect fill="#181825" x="1439.6" y="367.5" width="24.4" height="24.65" shape-rendering="crispEdges"/><rect fill="#181825" x="0" y="391.9" width="24.4" height="24.65" shape-rendering="crispEdges"/><rect fill="#181825" x="24.4" y="391.9" width="1415.2" height="24.65" shape-rendering="crispEdges"/><rect fill="#181825" x="1439.6" y="391.9" width="24.4" height="24.65" shape-rendering="crispEdges"/><rect fill="#181825" x="0" y="416.3" width="24.4" height="24.65" shape-rendering="crispEdges"/><rect fill="#f5c2e7" x="24.4" y="416.3" width="256.2" height="24.65" shape-rendering="crispEdges"/><rect fill="#181825" x="280.6" y="416.3" width="1159" height="24.65" shape-rendering="crispEdges"/><rect fill="#181825" x="1439.6" y="416.3" width="24.4" height="24.65" shape-rendering="crispEdges"/><rect fill="#181825" x="0" y="440.7" width="24.4" height="24.65" shape-rendering="crispEdges"/><rect fill="#181825" x="24.4" y="440.7" width="12.2" height="24.65" shape-rendering="crispEdges"/><rect fill="#181825" x="36.6" y="440.7" width="317.2" height="24.65" shape-rendering="crispEdges"/><rect fill="#181825" x="353.8" y="440.7" width="1085.8" height="24.65" shape-rendering="crispEdges"/><rect fill="#181825" x="1439.6" y="440.7" width="24.4" height="24.65" shape-rendering="crispEdges"/><rect fill="#181825" x="0" y="465.1" width="24.4" height="24.65" shape-rendering="crispEdges"/><rect fill="#181825" x="24.4" y="465.1" width="1415.2" height="24.65" shape-rendering="crispEdges"/><rect fill="#181825" x="1439.6" y="465.1" width="24.4" height="24.65" shape-rendering="crispEdges"/><rect fill="#181825" x="0" y="489.5" width="24.4" height="24.65" shape-rendering="crispEdges"/><rect fill="#f5c2e7" x="24.4" y="489.5" width="427" height="24.65" shape-rendering="crispEdges"/><rect fill="#181825" x="451.4" y="489.5" width="988.2" height="24.65" shape-rendering="crispEdges"/><rect fill="#181825" x="1439.6" y="489.5" width="24.4" height="24.65" shape-rendering="crispEdges"/><rect fill="#181825" x="0" y="513.9" width="24.4" height="24.65" shape-rendering="crispEdges"/><rect fill="#181825" x="24.4" y="513.9" width="12.2" height="24.65" shape-rendering="crispEdges"/><rect fill="#181825" x="36.6" y="513.9" width="854" height="24.65" shape-rendering="crispEdges"/><rect fill="#181825" x="890.6" y="513.9" width="549" height="24.65" shape-rendering="crispEdges"/><rect fill="#181825" x="1439.6" y="513.9" width="24.4" height="24.65" shape-rendering="crispEdges"/><rect fill="#181825" x="0" y="538.3" width="24.4" height="24.65" shape-rendering="crispEdges"/><rect fill="#181825" x="24.4" y="538.3" width="1415.2" height="24.65" shape-rendering="crispEdges"/><rect fill="#181825" x="1439.6" y="538.3" width="24.4" height="24.65" shape-rendering="crispEdges"/><rect fill="#181825" x="0" y="562.7" width="24.4" height="24.65" shape-rendering="crispEdges"/><rect fill="#181825" x="24.4" y="562.7" width="1415.2" height="24.65" shape-rendering="crispEdges"/><rect fill="#181825" x="1439.6" y="562.7" width="24.4" height="24.65" shape-rendering="crispEdges"/><rect fill="#181825" x="0" y="587.1" width="24.4" height="24.65" shape-rendering="crispEdges"/><rect fill="#181825" x="24.4" y="587.1" width="1415.2" height="24.65" shape-rendering="crispEdges"/><rect fill="#181825" x="1439.6" y="587.1" width="24.4" height="24.65" shape-rendering="crispEdges"/><rect fill="#181825" x="0" y="611.5" width="24.4" height="24.65" shape-rendering="crispEdges"/><rect fill="#181825" x="24.4" y="611.5" width="1415.2" height="24.65" shape-rendering="crispEdges"/><rect fill="#181825" x="1439.6" y="611.5" width="24.4" height="24.65" shape-rendering="crispEdges"/><rect fill="#181825" x="0" y="635.9" width="24.4" height="24.65" shape-rendering="crispEdges"/><rect fill="#181825" x="24.4" y="635.9" width="1415.2" height="24.65" shape-rendering="crispEdges"/><rect fill="#181825" x="1439.6" y="635.9" width="24.4" height="24.65" shape-rendering="crispEdges"/><rect fill="#181825" x="0" y="660.3" width="1464" height="24.65" shape-rendering="crispEdges"/><rect fill="#181825" x="0" y="684.7" width="1464" height="24.65" shape-rendering="crispEdges"/><rect fill="#45475a" x="0" y="709.1" width="36.6" height="24.65" shape-rendering="crispEdges"/><rect fill="#45475a" x="36.6" y="709.1" width="134.2" height="24.65" shape-rendering="crispEdges"/><rect fill="#45475a" x="170.8" y="709.1" width="1293.2" height="24.65" shape-rendering="crispEdges"/>
    <g class="terminal-1257802006-matrix">
    <text class="terminal-1257802006-r2" x="12.2" y="20" textLength="12.2" clip-path="url(#terminal-1257802006-line-0)">⭘</text><text class="terminal-1257802006-r2" x="622.2" y="20" textLength="183" clip-path="url(#terminal-1257802006-line-0)">Dionysus&#160;-&#160;Help</text><text class="terminal-1257802006-r1" x="1464" y="20" textLength="12.2" clip-path="url(#terminal-1257802006-line-0)">
</text><text class="terminal-1257802006-r1" x="1464" y="44.4" textLength="12.2" clip-path="url(#terminal-1257802006-line-1)">
</text><text class="terminal-1257802006-r1" x="1464" y="68.8" textLength="12.2" clip-path="url(#terminal-1257802006-line-2)">
</text><text class="terminal-1257802006-r4" x="24.4" y="93.2" textLength="305" clip-path="url(#terminal-1257802006-line-3)">How&#160;do&#160;I&#160;add&#160;audio&#160;files?</text><text class="terminal-1257802006-r1" x="1464" y="93.2" textLength="12.2" clip-path="url(#terminal-1257802006-line-3)">
</text><text class="terminal-1257802006-r3" x="36.6" y="117.6" textLength="561.2" clip-path="url(#terminal-1257802006-line-4)">Put&#160;your&#160;audio&#160;files&#160;into&#160;the&#160;&#x27;audio/&#x27;&#160;folder.</text><text class="terminal-1257802006-r1" x="1464" y="117.6" textLength="12.2" clip-path="url(#terminal-1257802006-line-4)">
</text><text class="terminal-1257802006-r3" x="36.6" y="142" textLength="683.2" clip-path="url(#terminal-1257802006-line-5)">The&#160;following&#160;file&#160;formats&#160;are&#160;supported:&#160;mp3,&#160;ogg,&#160;wav.</text><text class="terminal-1257802006-r1" x="1464" y="142" textLength="12.2" clip-path="url(#terminal-1257802006-line-5)">
</text><text class="terminal-1257802006-r1" x="1464" y="166.4" textLength="12.2" clip-path="url(#terminal-1257802006-line-6)">
</text><text class="terminal-1257802006-r4" x="24.4" y="190.8" textLength="317.2" clip-path="url(#terminal-1257802006-line-7)">How&#160;do&#160;I&#160;change&#160;the&#160;icons?</text><text class="terminal-1257802006-r1" x="1464" y="190.8" textLength="12.2" clip-path="url(#terminal-1257802006-line-7)">
</text><text class="terminal-1257802006-r3" x="36.6" y="215.2" textLength="451.4" clip-path="url(#terminal-1257802006-line-8)">Add&#160;an&#160;entry&#160;in&#160;&#x27;config/sounds.json&#x27;.</text><text class="terminal-1257802006-r1" x="1464" y="215.2" textLength="12.2" clip-path="url(#terminal-1257802006-line-8)">
</text><text class="terminal-1257802006-r3" x="36.6" y="239.6" textLength="817.4" clip-path="url(#terminal-1257802006-line-9)">If&#160;your&#160;file&#160;is&#160;named&#160;&#x27;example.mp3&#x27;&#160;the&#160;entry&#160;would&#160;look&#160;like&#160;this:</text><text class="terminal-1257802006-r1" x="1464" y="239.6" textLength="12.2" clip-path="url(#terminal-1257802006-line-9)">
</text><text class="terminal-1257802006-r3" x="36.6" y="264" textLength="353.8" clip-path="url(#terminal-1257802006-line-10)">&quot;example.mp3&quot;:&#160;{&quot;emoji&quot;:&#160;&quot;💎&quot;}</text><text class="terminal-1257802006-r1" x="1464" y="264" textLength="12.2" clip-path="url(#terminal-1257802006-line-10)">
</text><text class="terminal-1257802006-r1" x="1464" y="288.4" textLength="12.2" clip-path="url(#terminal-1257802006-line-11)">
</text><text class="terminal-1257802006-r4" x="24.4" y="312.8" textLength="317.2" clip-path="url(#terminal-1257802006-line-12)">How&#160;do&#160;I&#160;change&#160;the&#160;names?</text><text class="terminal-1257802006-r1" x="1464" y="312.8" textLength="12.2" clip-path="url(#terminal-1257802006-line-12)">
</text><text class="terminal-1257802006-r3" x="36.6" y="337.2" textLength="451.4" clip-path="url(#terminal-1257802006-line-13)">Add&#160;an&#160;entry&#160;in&#160;&#x27;config/sounds.json&#x27;.</text><text class="terminal-1257802006-r1" x="1464" y="337.2" textLength="12.2" clip-path="url(#terminal-1257802006-line-13)">
</text><text class="terminal-1257802006-r3" x="36.6" y="361.6" textLength="817.4" clip-path="url(#terminal-1257802006-line-14)">If&#160;your&#160;file&#160;is&#160;named&#160;&#x27;example.mp3&#x27;&#160;the&#160;entry&#160;would&#160;look&#160;like&#160;this:</text><text class="terminal-1257802006-r1" x="1464" y="361.6" textLength="12.2" clip-path="url(#terminal-1257802006-line-14)">
</text><text class="terminal-1257802006-r3" x="36.6" y="386" textLength="475.8" clip-path="url(#terminal-1257802006-line-15)">&quot;example.mp3&quot;:&#160;{&quot;name&quot;:&#160;&quot;Example&#160;name&quot;}</text><text class="terminal-1257802006-r1" x="1464" y="386" textLength="12.2" clip-path="url(#terminal-1257802006-line-15)">
</text><text class="terminal-1257802006-r1" x="1464" y="410.4" textLength="12.2" clip-path="url(#terminal-1257802006-line-16)">
</text><text class="terminal-1257802006-r4" x="24.4" y="434.8" textLength="256.2" clip-path="url(#terminal-1257802006-line-17)">How&#160;do&#160;I&#160;play&#160;sounds?</text><text class="terminal-1257802006-r1" x="1464" y="434.8" textLength="12.2" clip-path="url(#terminal-1257802006-line-17)">
</text><text class="terminal-1257802006-r3" x="36.6" y="459.2" textLength="317.2" clip-path="url(#terminal-1257802006-line-18)">Just&#160;click&#160;on&#160;the&#160;buttons.</text><text class="terminal-1257802006-r1" x="1464" y="459.2" textLength="12.2" clip-path="url(#terminal-1257802006-line-18)">
</text><text class="terminal-1257802006-r1" x="1464" y="483.6" textLength="12.2" clip-path="url(#terminal-1257802006-line-19)">
</text><text class="terminal-1257802006-r4" x="24.4" y="508" textLength="427" clip-path="url(#terminal-1257802006-line-20)">I&#160;don&#x27;t&#160;understand&#160;the&#160;sounds&#160;file.</text><text class="terminal-1257802006-r1" x="1464" y="508" textLength="12.2" clip-path="url(#terminal-1257802006-line-20)">
</text><text class="terminal-1257802006-r3" x="36.6" y="532.4" textLength="854" clip-path="url(#terminal-1257802006-line-21)">https://developer.mozilla.org/en-US/docs/Learn/JavaScript/Objects/JSON</text><text class="terminal-1257802006-r1" x="1464" y="532.4" textLength="12.2" clip-path="url(#terminal-1257802006-line-21)">
</text><text class="terminal-1257802006-r1" x="1464" y="556.8" textLength="12.2" clip-path="url(#terminal-1257802006-line-22)">
</text><text class="terminal-1257802006-r1" x="1464" y="581.2" textLength="12.2" clip-path="url(#terminal-1257802006-line-23)">
</text><text class="terminal-1257802006-r1" x="1464" y="605.6" textLength="12.2" clip-path="url(#terminal-1257802006-line-24)">
</text><text class="terminal-1257802006-r1" x="1464" y="630" textLength="12.2" clip-path="url(#terminal-1257802006-line-25)">
</text><text class="terminal-1257802006-r1" x="1464" y="654.4" textLength="12.2" clip-path="url(#terminal-1257802006-line-26)">
</text><text class="terminal-1257802006-r1" x="1464" y="678.8" textLength="12.2" clip-path="url(#terminal-1257802006-line-27)">
</text><text class="terminal-1257802006-r1" x="1464" y="703.2" textLength="12.2" clip-path="url(#terminal-1257802006-line-28)">
</text><text class="terminal-1257802006-r5" x="0" y="727.6" textLength="36.6" clip-path="url(#terminal-1257802006-line-29)">&#160;h&#160;</text><text class="terminal-1257802006-r3" x="36.6" y="727.6" textLength="134.2" clip-path="url(#terminal-1257802006-line-29)">Close&#160;help&#160;</text>
    </g>
    </g>
</svg>
